<?xml version="1.0" encoding="UTF-8"?>
<svg width="160px" height="160px" viewBox="0 0 160 160" version="1.1" xmlns="http://www.w3.org/2000/svg" xmlns:xlink="http://www.w3.org/1999/xlink">
    <title>ADN</title>
    <g id="ADN" stroke="none" stroke-width="1" fill="none" fill-rule="evenodd">
        <g transform="translate(13.000000, 66.000000)" fill-rule="nonzero">
            <g id="Group" transform="translate(88.121889, 5.215746)" fill="#212121">
                <path d="M11.1984279,12.0389433 C10.1695166,12.8878432 8.85585117,13.397936 7.14163175,13.397936 C2.80008156,13.397936 0,11.0187577 0,6.99636529 L0,6.93989745 C0,2.94573895 3.11331102,0 7.627612,0 C10.3137919,0 11.883736,0.651262413 13.3986276,2.15330694 C14.8261946,3.56876744 15.7696797,5.72207438 15.7696797,9.63153112 L15.7696797,9.68799896 C15.7696797,16.1178036 12.7133195,20.507237 7.02773012,20.507237 C4.11374694,20.507237 2.14324887,19.5435192 0.457504851,18.1562926 L2.77160615,14.8416304 C4.22764856,16.0029857 5.45778609,16.5413124 7.14163175,16.5413124 C10.1695166,16.5413124 11.0275754,13.736743 11.1984279,12.0370611 L11.1984279,12.0389433 Z M11.2838541,6.82696177 L11.2838541,6.77049393 C11.2838541,5.01434413 9.97018871,3.74005322 7.76998903,3.74005322 C5.56978935,3.74005322 4.37002559,4.98611021 4.37002559,6.74226001 L4.37002559,6.79872785 C4.37002559,8.55487765 5.68369098,9.77270072 7.85541525,9.77270072 C10.0271395,9.77270072 11.2838541,8.52664373 11.2838541,6.82696177 L11.2838541,6.82696177 Z" id="Shape"></path>
                <polygon id="Path" points="20.2536069 4.61906925 16.7682172 5.4679691 15.8532075 1.89920166 21.5957477 0.199519699 24.5951571 0.199519699 24.5951571 20.1684299 20.2536069 20.1684299 20.2536069 4.61906925"></polygon>
                <polygon id="Path" points="26.8523076 15.637827 31.4805102 15.637827 31.4805102 20.1703122 26.8523076 20.1703122 26.8523076 15.637827"></polygon>
                <polygon id="Path" points="41.8797283 4.10897644 32.4809461 4.10897644 32.4809461 0.342571558 46.8781112 0.342571558 46.8781112 3.62899981 37.9083584 20.1703122 32.9384509 20.1703122 41.8797283 4.1108587"></polygon>
            </g>
            <path d="M27.4578845,26.2368404 C27.4578845,27.7633543 26.2865962,29 24.8419439,29 L2.6159406,29 C1.17128835,29 0,27.7633543 0,26.2368404 L0,2.7631596 C0,1.23664568 1.17128835,0 2.6159406,0 L24.8438423,0 C26.2884945,0 27.4597829,1.23664568 27.4597829,2.7631596 L27.4597829,26.2387227 L27.4578845,26.2368404 Z" id="Path" fill="#DF0A1A"></path>
            <path d="M56.5388672,26.2368404 C56.5388672,27.7633543 55.3675788,29 53.9229266,29 L31.6931265,29 C30.2484743,29 29.0771859,27.7633543 29.0771859,26.2368404 L29.0771859,2.7631596 C29.0771859,1.23664568 30.2484743,0 31.6931265,0 L53.9229266,0 C55.3675788,0 56.5388672,1.23664568 56.5388672,2.7631596 L56.5388672,26.2387227 L56.5388672,26.2368404 Z" id="Path" fill="#DF0A1A"></path>
            <path d="M85.7603285,26.2368404 C85.7603285,27.7633543 84.5890401,29 83.1443879,29 L60.9164862,29 C59.471834,29 58.3005456,27.7633543 58.3005456,26.2368404 L58.3005456,2.7631596 C58.3005456,1.23664568 59.471834,0 60.9164862,0 L83.1443879,0 C84.5890401,0 85.7603285,1.23664568 85.7603285,2.7631596 L85.7603285,26.2387227 L85.7603285,26.2368404 Z" id="Path" fill="#0060A1"></path>
            <path d="M11.699595,4.56260141 L15.7563911,4.56260141 L24.3255899,24.5315117 L19.7258627,24.5315117 L17.8977417,20.0837282 L9.44434289,20.0837282 L7.61622184,24.5315117 L3.13039627,24.5315117 L11.699595,4.56260141 Z M16.3277976,16.2326215 L13.6719915,9.8028169 L11.0142869,16.2326215 L16.3277976,16.2326215 Z" id="Shape" fill="#F6F6F6"></path>
            <path d="M34.7172146,4.70565327 L42.5156791,4.70565327 C48.8011503,4.70565327 53.1427005,8.98215097 53.1427005,14.5630558 L53.1427005,14.6195236 C53.1427005,20.2004284 48.8011503,24.5333939 42.5156791,24.5333939 L34.7172146,24.5333939 L34.7172146,4.70565327 L34.7172146,4.70565327 Z M39.1157156,8.64334393 L39.1157156,20.5957033 L42.5156791,20.5957033 C46.1149703,20.5957033 48.5429733,18.188291 48.5429733,14.6759914 L48.5429733,14.6195236 C48.5429733,11.107224 46.1149703,8.64334393 42.5156791,8.64334393 L39.1157156,8.64334393 L39.1157156,8.64334393 Z" id="Shape" fill="#F6F6F6"></path>
            <polygon id="Path" fill="#F6F6F6" points="63.2267908 4.70565327 67.2835869 4.70565327 76.6538937 16.9140001 76.6538937 4.70565327 80.9954439 4.70565327 80.9954439 24.5333939 77.2537756 24.5333939 67.5702393 11.9297722 67.5702393 24.5333939 63.2286891 24.5333939 63.2286891 4.70565327"></polygon>
        </g>
    </g>
</svg>