<?xml version="1.0" encoding="UTF-8" standalone="no"?>
<svg
   viewBox="148.83 115 160 160"
   version="1.1"
   id="svg10"
   sodipodi:docname="gitlab.svg"
   inkscape:version="1.3.2 (091e20ef0f, 2023-11-25)"
   width="160"
   height="160"
   xmlns:inkscape="http://www.inkscape.org/namespaces/inkscape"
   xmlns:sodipodi="http://sodipodi.sourceforge.net/DTD/sodipodi-0.dtd"
   xmlns="http://www.w3.org/2000/svg"
   xmlns:svg="http://www.w3.org/2000/svg">
  <sodipodi:namedview
     id="namedview10"
     pagecolor="#ffffff"
     bordercolor="#666666"
     borderopacity="1.0"
     inkscape:showpageshadow="2"
     inkscape:pageopacity="0.0"
     inkscape:pagecheckerboard="0"
     inkscape:deskcolor="#d1d1d1"
     inkscape:zoom="0.93172683"
     inkscape:cx="297.83408"
     inkscape:cy="64.396557"
     inkscape:window-width="1445"
     inkscape:window-height="1002"
     inkscape:window-x="0"
     inkscape:window-y="0"
     inkscape:window-maximized="0"
     inkscape:current-layer="svg10" />
  <defs
     id="defs1">
    <style
       id="style1">.cls-1{fill:#171321;}.cls-2{fill:#e24329;}.cls-3{fill:#fc6d26;}.cls-4{fill:#fca326;}</style>
  </defs>
  <g
     id="LOGO"
     transform="translate(2.1153645,5.0030306)">
    <path
       class="cls-2"
       d="m 302,174.37 -0.21,-0.56 -21.2,-55.3 a 5.5,5.5 0 0 0 -2.18,-2.63 5.6,5.6 0 0 0 -8.41,3.2 l -14.31,43.81 h -57.95 l -14.31,-43.81 a 5.61,5.61 0 0 0 -8.41,-3.2 5.5,5.5 0 0 0 -2.18,2.63 l -21.19,55.31 -0.22,0.55 a 39.36,39.36 0 0 0 13.06,45.49 l 0.08,0.06 0.18,0.14 32.25,24.17 16,12.09 9.72,7.35 a 6.57,6.57 0 0 0 7.92,0 l 9.72,-7.35 16,-12.09 32.48,-24.31 0.09,-0.07 A 39.36,39.36 0 0 0 302,174.37 Z"
       id="path7" />
    <path
       class="cls-3"
       d="m 302,174.37 -0.21,-0.56 a 71.5,71.5 0 0 0 -28.5,12.82 l -46.55,35.2 29.64,22.4 32.48,-24.31 0.09,-0.07 A 39.36,39.36 0 0 0 302,174.37 Z"
       id="path8" />
    <path
       class="cls-4"
       d="m 197,244.23 16,12.09 9.72,7.35 a 6.57,6.57 0 0 0 7.92,0 l 9.72,-7.35 16,-12.09 -29.64,-22.4 z"
       id="path9" />
    <path
       class="cls-3"
       d="m 180.14,186.63 a 71.44,71.44 0 0 0 -28.49,-12.81 l -0.22,0.55 a 39.36,39.36 0 0 0 13.06,45.49 l 0.08,0.06 0.18,0.14 32.25,24.17 29.66,-22.4 z"
       id="path10" />
  </g>
</svg>
